<svg width="100" height="100" viewBox="0 0 100 100" fill="none" xmlns="http://www.w3.org/2000/svg">
<g filter="url(#filter0_b_85_5)">
<rect width="100" height="100" rx="15" fill="#1C1C1E" fill-opacity="0.7"/>
</g>
<path d="M37.3618 32.158C45.2265 32.158 51.6073 40.0713 51.6073 49.8336C51.6073 59.6698 45.2265 66.7697 34.9875 66.7697C28.0131 66.7697 29.2745 65.4385 25.1937 65.4385C22.8194 65.4385 21.7807 66.7697 20 66.7697V19.2895C23.5614 18.5499 26.7518 17.0708 29.2745 15V35.2641C31.5745 33.2673 34.394 32.158 37.3618 32.158ZM34.394 65.8082C40.1812 65.8822 42.2587 58.8563 42.2587 49.8336C42.2587 40.8109 40.1812 33.5631 35.0617 33.5631C32.4649 33.5631 29.2745 35.1162 29.2745 38.2964V57.4511C29.2745 61.6667 29.9422 65.8082 34.394 65.8082Z" fill="#EEE9DB"/>
<path d="M63.4544 85C50.7669 85 46.4636 79.6751 46.0184 79.0835C42.086 74.8679 44.3119 69.2472 44.6087 68.6556H45.2023C45.2023 78.9356 54.4767 84.1125 62.7866 84.1125C67.09 84.1125 71.1707 82.7073 71.1707 77.7522C71.1707 71.6138 65.1609 67.99 58.78 64.1442C51.8057 59.8547 44.3861 55.3434 44.3861 46.5425C44.3861 37.224 52.7702 32.2689 61.3027 32.2689C66.348 32.2689 70.5772 34.3397 75.6967 34.3397C77.1064 34.3397 78.5161 33.6741 79.5548 32.6387C80 36.2625 78.8871 39.3687 74.7321 39.3687C68.0545 39.3687 69.3158 33.0085 60.8575 33.0085C56.3316 33.0085 52.5476 35.8928 52.5476 40.8479C52.5476 47.2081 58.6317 50.4622 64.9383 53.8642C72.2837 57.8579 80 62.1474 80 71.392C80 81.0063 71.7643 85 63.4544 85Z" fill="#EEE9DB"/>
<defs>
<filter id="filter0_b_85_5" x="-20" y="-20" width="140" height="140" filterUnits="userSpaceOnUse" color-interpolation-filters="sRGB">
<feFlood flood-opacity="0" result="BackgroundImageFix"/>
<feGaussianBlur in="BackgroundImageFix" stdDeviation="10"/>
<feComposite in2="SourceAlpha" operator="in" result="effect1_backgroundBlur_85_5"/>
<feBlend mode="normal" in="SourceGraphic" in2="effect1_backgroundBlur_85_5" result="shape"/>
</filter>
</defs>
</svg>
